<svg width="301" height="301" viewBox="0 0 301 301" fill="none" xmlns="http://www.w3.org/2000/svg">
<circle cx="150.17" cy="150.856" r="150" fill="#FF4C68"/>
<path d="M198.764 160.808L200.17 191.668C200.378 196.16 198.243 200.326 193.764 204.167C189.285 208.009 183.165 211.052 175.404 213.298C167.644 215.544 159.233 216.668 150.17 216.668C141.108 216.668 132.696 215.544 124.936 213.298C117.175 211.052 111.055 208.009 106.576 204.167C102.097 200.326 99.9617 196.16 100.17 191.668L101.576 160.808L146.42 178.484C147.566 178.94 148.816 179.168 150.17 179.168C151.524 179.168 152.774 178.94 153.92 178.484L198.764 160.808ZM240.17 129.168C240.17 130.665 239.597 131.674 238.451 132.195L150.951 166.57C150.743 166.635 150.483 166.668 150.17 166.668C149.858 166.668 149.597 166.635 149.389 166.57L98.4514 146.453C96.2118 148.666 94.3628 152.296 92.9044 157.342C91.4461 162.387 90.5606 168.198 90.2481 174.773C93.5294 177.117 95.17 180.665 95.17 185.418C95.17 189.91 93.6596 193.393 90.6389 195.867L95.1699 238.152C95.2741 239.063 95.0658 239.877 94.5449 240.593C94.0762 241.309 93.4512 241.667 92.67 241.667H77.67C76.8888 241.667 76.2638 241.309 75.7951 240.593C75.2742 239.877 75.0659 239.063 75.17 238.152L79.7012 195.867C76.6805 193.393 75.1701 189.91 75.1701 185.418C75.1701 180.665 76.8628 177.052 80.2482 174.578C80.8211 161.101 83.3731 150.359 87.9044 142.351L61.8888 132.195C60.743 131.674 60.17 130.665 60.17 129.168C60.17 127.67 60.743 126.661 61.8888 126.14L149.389 91.7652C149.597 91.7 149.858 91.6675 150.17 91.6675C150.483 91.6675 150.743 91.7 150.951 91.7652L238.451 126.14C239.597 126.661 240.17 127.67 240.17 129.168Z" fill="#FCEBEE"/>
</svg>
